<?xml version="1.0" encoding="utf-8"?>
<!-- Generator: Adobe Illustrator 23.0.6, SVG Export Plug-In . SVG Version: 6.00 Build 0)  -->
<svg version="1.1" id="Layer_1" xmlns="http://www.w3.org/2000/svg" xmlns:xlink="http://www.w3.org/1999/xlink" x="0px" y="0px"
	 width="64px" height="64px" viewBox="0 0 64 64" style="enable-background:new 0 0 64 64;" xml:space="preserve">
<style type="text/css">
	.st0{fill:#2D221E;}
	.st1{fill:none;stroke:#2D221E;stroke-miterlimit:10;}
	.st2{fill:none;}
</style>
<g>
	<g>
		<path class="st0" d="M14,6c4.4,0,8,3.6,8,8s-3.6,8-8,8s-8-3.6-8-8S9.6,6,14,6 M14,4C8.5,4,4,8.5,4,14s4.5,10,10,10s10-4.5,10-10
			S19.5,4,14,4L14,4z"/>
	</g>
	<path class="st0" d="M26.9,26.9L26.9,26.9c-1.2,1.2-3.1,1.2-4.2,0L20,24.2c-1.2-1.2-1.2-3.1,0-4.2l0,0c1.2-1.2,3.1-1.2,4.2,0
		l2.7,2.7C28.1,23.9,28.1,25.8,26.9,26.9z"/>
	<path class="st1" d="M13,8c3.9,0,7,3.1,7,7"/>
	<rect class="st2" width="32" height="32"/>
</g>
<g>
	<rect x="32" class="st2" width="32" height="32"/>
	<path class="st0" d="M58,13c0-3.3-2.7-6-6-6c-1.6,0-2.9,1.1-4,2c-1.1-0.9-2.5-2-4-2c-3.3,0-6,2.7-6,6c0,2.3,1,3.5,3,5.5l7,7.5
		l7-7.5C57,16.5,58,15.2,58,13z"/>
</g>
<g>
	<rect x="32" y="32" class="st2" width="32" height="32"/>
	<path class="st1" d="M58,45c0-3.3-2.7-6-6-6c-1.6,0-2.9,1.1-4,2c-1.1-0.9-2.5-2-4-2c-3.3,0-6,2.7-6,6c0,2.3,1,3.5,3,5.5l7,7.5
		l7-7.5C57,48.5,58,47.2,58,45z"/>
</g>
</svg>
