<?xml version="1.0" encoding="utf-8"?>
<!-- Generator: Adobe Illustrator 23.0.6, SVG Export Plug-In . SVG Version: 6.00 Build 0)  -->
<svg version="1.1" id="Layer_1" xmlns="http://www.w3.org/2000/svg" xmlns:xlink="http://www.w3.org/1999/xlink" x="0px" y="0px"
	 width="32px" height="32px" viewBox="0 0 32 32" style="enable-background:new 0 0 32 32;" xml:space="preserve">
<style type="text/css">
	.st0{fill:#2D221E;}
	.st1{fill:none;stroke:#2D221E;stroke-miterlimit:10;}
</style>
<g>
	<path class="st0" d="M13,4c5,0,9,4,9,9s-4,9-9,9s-9-4-9-9S8,4,13,4 M13,2C6.9,2,2,6.9,2,13s4.9,11,11,11s11-4.9,11-11S19.1,2,13,2
		L13,2z"/>
</g>
<path class="st1" d="M13,6c3.9,0,7,3.1,7,7"/>
<path class="st0" d="M28.9,28.9L28.9,28.9c-1.2,1.2-3.1,1.2-4.2,0L20,24.2c-1.2-1.2-1.2-3.1,0-4.2l0,0c1.2-1.2,3.1-1.2,4.2,0
	l4.7,4.7C30.1,25.9,30.1,27.8,28.9,28.9z"/>
</svg>
