<?xml version="1.0" encoding="utf-8"?>
<!-- Generator: Adobe Illustrator 23.0.6, SVG Export Plug-In . SVG Version: 6.00 Build 0)  -->
<svg version="1.1" id="Layer_1" xmlns="http://www.w3.org/2000/svg" xmlns:xlink="http://www.w3.org/1999/xlink" x="0px" y="0px"
	 width="96px" height="32px" viewBox="0 0 96 32" style="enable-background:new 0 0 96 32;" xml:space="preserve">
<style type="text/css">
	.st0{filter:url(#Adobe_OpacityMaskFilter);}
	.st1{fill:url(#SVGID_2_);}
	.st2{mask:url(#SVGID_1_);}
	.st3{fill:#004D40;}
	.st4{opacity:0.75;fill:#004D40;}
	.st5{fill:#2D221E;}
	.st6{fill:none;stroke:#014D41;stroke-miterlimit:10;}
</style>
<defs>
	<filter id="Adobe_OpacityMaskFilter" filterUnits="userSpaceOnUse" x="34" y="0" width="60" height="32">
		<feColorMatrix  type="matrix" values="1 0 0 0 0  0 1 0 0 0  0 0 1 0 0  0 0 0 1 0"/>
	</filter>
</defs>
<mask maskUnits="userSpaceOnUse" x="34" y="0" width="60" height="32" id="SVGID_1_">
	<g class="st0">
		<linearGradient id="SVGID_2_" gradientUnits="userSpaceOnUse" x1="34" y1="16" x2="94" y2="16">
			<stop  offset="0" style="stop-color:#FFFFFF;stop-opacity:0.75"/>
			<stop  offset="1" style="stop-color:#000000"/>
		</linearGradient>
		<path class="st1" d="M93,32H35c-0.5,0-1-0.5-1-1V1c0-0.6,0.5-1,1-1h58c0.6,0,1,0.4,1,1v30C94,31.5,93.6,32,93,32z"/>
	</g>
</mask>
<g class="st2">
	<path class="st3" d="M48,16H36c-1.1,0-2-0.9-2-2V2c0-1.1,0.9-2,2-2h12c1.1,0,2,0.9,2,2v12C50,15.1,49.1,16,48,16z"/>
	<path class="st3" d="M46,32H36c-1.1,0-2-0.9-2-2V20c0-1.1,0.9-2,2-2h10c1.1,0,2,0.9,2,2v10C48,31.1,47.1,32,46,32z"/>
	<path class="st3" d="M61,10h-8c-0.5,0-1-0.4-1-1V1c0-0.6,0.5-1,1-1h8c0.5,0,1,0.4,1,1v8C62,9.6,61.5,10,61,10z"/>
	<path class="st3" d="M61,20h-6c-0.5,0-1-0.5-1-1v-6c0-0.6,0.5-1,1-1h6c0.5,0,1,0.4,1,1v6C62,19.5,61.5,20,61,20z"/>
	<path class="st3" d="M60,32h-8c-0.5,0-1-0.5-1-1v-8c0-0.5,0.5-1,1-1h8c0.5,0,1,0.5,1,1v8C61,31.5,60.5,32,60,32z"/>
	<path class="st3" d="M70,7h-5c-0.6,0-1-0.4-1-1V1c0-0.6,0.4-1,1-1l5,0c0.6,0,1,0.4,1,1v5C71,6.6,70.6,7,70,7z"/>
	<path class="st3" d="M70,15h-4c-0.6,0-1-0.4-1-1v-4c0-0.6,0.4-1,1-1h4c0.6,0,1,0.4,1,1v4C71,14.6,70.6,15,70,15z"/>
	<path class="st3" d="M71,23h-4c-0.6,0-1-0.5-1-1v-4c0-0.5,0.4-1,1-1h4c0.6,0,1,0.5,1,1v4C72,22.5,71.6,23,71,23z"/>
	<path class="st3" d="M69,32h-5c-0.5,0-1-0.5-1-1v-5c0-0.5,0.5-1,1-1h5c0.6,0,1,0.5,1,1v5C70,31.5,69.6,32,69,32z"/>
	<path class="st3" d="M76,4h-2c-0.6,0-1-0.5-1-1V1c0-0.6,0.4-1,1-1l2,0c0.6,0,1,0.4,1,1v2C77,3.5,76.6,4,76,4z"/>
	<path class="st3" d="M77,11h-3c-0.6,0-1-0.4-1-1V7c0-0.6,0.4-1,1-1h3c0.6,0,1,0.4,1,1v3C78,10.6,77.6,11,77,11z"/>
	<path class="st3" d="M78,18h-3c-0.6,0-1-0.5-1-1v-3c0-0.6,0.4-1,1-1h3c0.6,0,1,0.4,1,1v3C79,17.5,78.6,18,78,18z"/>
	<path class="st3" d="M77,24h-2c-0.6,0-1-0.5-1-1v-2c0-0.5,0.4-1,1-1h2c0.6,0,1,0.5,1,1v2C78,23.5,77.6,24,77,24z"/>
	<path class="st3" d="M77,32h-4c-0.6,0-1-0.5-1-1v-4c0-0.5,0.4-1,1-1h4c0.6,0,1,0.5,1,1v4C78,31.5,77.6,32,77,32z"/>
	<path class="st3" d="M82,4h-2c-0.6,0-1-0.5-1-1V1c0-0.6,0.4-1,1-1l2,0c0.6,0,1,0.4,1,1v2C83,3.5,82.6,4,82,4z"/>
	<path class="st3" d="M83,10h-2c-0.6,0-1-0.4-1-1V7c0-0.6,0.4-1,1-1h2c0.6,0,1,0.4,1,1v2C84,9.6,83.6,10,83,10z"/>
	<path class="st3" d="M83,15h-1c-0.6,0-1-0.4-1-1v-1c0-0.6,0.4-1,1-1h1c0.6,0,1,0.4,1,1v1C84,14.6,83.6,15,83,15z"/>
	<path class="st3" d="M84,21h-2c-0.6,0-1-0.5-1-1v-2c0-0.5,0.4-1,1-1h2c0.6,0,1,0.5,1,1v2C85,20.5,84.6,21,84,21z"/>
	<path class="st3" d="M83,26h-1c-0.6,0-1-0.5-1-1v-1c0-0.5,0.4-1,1-1h1c0.6,0,1,0.5,1,1v1C84,25.5,83.6,26,83,26z"/>
	<path class="st3" d="M83,32h-2c-0.6,0-1-0.5-1-1v-2c0-0.5,0.4-1,1-1h2c0.6,0,1,0.5,1,1v2C84,31.5,83.6,32,83,32z"/>
	<path class="st3" d="M87,3h-1c-0.6,0-1-0.5-1-1V1c0-0.6,0.4-1,1-1l1,0c0.6,0,1,0.4,1,1v1C88,2.5,87.6,3,87,3z"/>
	<path class="st3" d="M89,9h-2c-0.6,0-1-0.4-1-1V6c0-0.6,0.4-1,1-1h2c0.6,0,1,0.4,1,1v2C90,8.6,89.6,9,89,9z"/>
	<path class="st3" d="M88,14h-1c-0.6,0-1-0.4-1-1v-1c0-0.6,0.4-1,1-1h1c0.6,0,1,0.4,1,1v1C89,13.6,88.6,14,88,14z"/>
	<rect x="87" y="16" class="st3" width="2" height="2"/>
	<path class="st3" d="M89,23h-1c-0.6,0-1-0.5-1-1v-1c0-0.5,0.4-1,1-1h1c0.6,0,1,0.5,1,1v1C90,22.5,89.6,23,89,23z"/>
	<path class="st3" d="M88,28h-1c-0.6,0-1-0.5-1-1v-1c0-0.5,0.4-1,1-1h1c0.6,0,1,0.5,1,1v1C89,27.5,88.6,28,88,28z"/>
	<rect x="87" y="30" class="st3" width="2" height="2"/>
	<rect x="91" y="30" class="st3" width="1" height="1"/>
	<rect x="91" y="26" class="st3" width="2" height="2"/>
	<rect x="92" y="23" class="st3" width="1" height="1"/>
	<rect x="92" y="19" class="st3" width="2" height="2"/>
	<rect x="91" y="15" class="st3" width="2" height="2"/>
	<rect x="91" y="11" class="st3" width="2" height="2"/>
	<rect x="92" y="7" class="st3" width="2" height="2"/>
	<rect x="92" y="3" class="st3" width="2" height="2"/>
	<rect x="91" y="1" class="st3" width="1" height="1"/>
</g>
<path class="st4" d="M28,30H4c-1.1,0-2-0.9-2-2V4c0-1.1,0.9-2,2-2h24c1.1,0,2,0.9,2,2v24C30,29.1,29.1,30,28,30z"/>
<path class="st5" d="M30,0H2C0.9,0,0,0.9,0,2v28c0,1.1,0.9,2,2,2h28c1.1,0,2-0.9,2-2V2C32,0.9,31.1,0,30,0z M30,28c0,1.1-0.9,2-2,2
	H4c-1.1,0-2-0.9-2-2V4c0-1.1,0.9-2,2-2h24c1.1,0,2,0.9,2,2V28z"/>
<polyline class="st6" points="4,24 9,19 13,23 21,15 29,24 "/>
<circle class="st6" cx="14" cy="11" r="2"/>
</svg>
