<?xml version="1.0" encoding="utf-8"?>
<svg version="1.1" id="svg-logo"
	xmlns="http://www.w3.org/2000/svg"
	xmlns:xlink="http://www.w3.org/1999/xlink"
	x="0px" y="0px"
	width="96px" height="32px"
	viewBox="0 0 96 32"
	style="enable-background:new 0 0 96 32;"
	xml:space="preserve">

	<style type="text/css">
		.logo-mask-data{
			filter:url(#opacityMask);
		}
		.logo-mask-square{ 
			fill:url(#linearGradient);
		}
		.logo-squares{ 
			mask:url(#mask);
		}
		.logo-square{ 
			fill:#ffffff;
		}
		.logo-line{
			fill:none;
			stroke:#ffffff;
			stroke-linecap:round;
			stroke-linejoin:round;
			stroke-miterlimit:10;
		}
	</style> 
	<defs>
		<filter id="opacityMask" filterUnits="userSpaceOnUse" x="34" y="0" width="60" height="32">
			<feColorMatrix type="matrix" values="1 0 0 0 0  0 1 0 0 0  0 0 1 0 0  0 0 0 1 0"/>
		</filter>
	</defs>
	<mask maskUnits="userSpaceOnUse" x="34" y="0" width="60" height="32" id="mask">
		<g class="logo-mask-data">
			<linearGradient id="linearGradient" gradientUnits="userSpaceOnUse" x1="34" y1="16" x2="94" y2="16">
				<stop offset="0" style="stop-color:#ffffff"/>
				<stop offset="1" style="stop-color:#ffffff;stop-opacity:0.1"/>
			</linearGradient>
			<path class="logo-mask-square" d="M93,32H35c-0.5,0-1-0.5-1-1V1c0-0.6,0.5-1,1-1h58c0.6,0,1,0.4,1,1v30C94,31.5,93.6,32,93,32z"/>
		</g>
	</mask>
	<g class="logo-squares">
		<path class="logo-square" d="M48,1c0.6,0,1,0.4,1,1v12c0,0.6-0.4,1-1,1H36c-0.6,0-1-0.4-1-1V2c0-0.6,0.4-1,1-1H48 M48,0H36 c-1.1,0-2,0.9-2,2v12c0,1.1,0.9,2,2,2h12c1.1,0,2-0.9,2-2V2C50,0.9,49.1,0,48,0L48,0z"/>
		<path class="logo-square" d="M46,19c0.6,0,1,0.4,1,1v10c0,0.6-0.4,1-1,1H36c-0.6,0-1-0.4-1-1V20c0-0.6,0.4-1,1-1H46 M46,18H36 c-1.1,0-2,0.9-2,2v10c0,1.1,0.9,2,2,2h10c1.1,0,2-0.9,2-2V20C48,18.9,47.1,18,46,18L46,18z"/>
		<path class="logo-square" d="M61,0.8c0.1,0,0.3,0.1,0.3,0.3v8c0,0.1-0.1,0.3-0.3,0.3h-8c-0.1,0-0.3-0.1-0.3-0.3V1c0-0.1,0.1-0.3,0.3-0.3 H61 M61,0h-8c-0.5,0-1,0.4-1,1v8c0,0.6,0.5,1,1,1h8c0.5,0,1-0.4,1-1V1C62,0.4,61.5,0,61,0L61,0z"/>
		<path class="logo-square" d="M61,12.8c0.1,0,0.3,0.1,0.3,0.3v6c0,0.1-0.1,0.3-0.3,0.3h-6c-0.1,0-0.3-0.1-0.3-0.3v-6c0-0.1,0.1-0.3,0.3-0.3 H61 M61,12h-6c-0.5,0-1,0.4-1,1v6c0,0.5,0.5,1,1,1h6c0.5,0,1-0.5,1-1v-6C62,12.4,61.5,12,61,12L61,12z"/>
		<path class="logo-square" d="M60,22.8c0.1,0,0.3,0.1,0.3,0.3v8c0,0.1-0.1,0.3-0.3,0.3h-8c-0.1,0-0.3-0.1-0.3-0.3v-8c0-0.1,0.1-0.3,0.3-0.3 H60 M60,22h-8c-0.5,0-1,0.5-1,1v8c0,0.5,0.5,1,1,1h8c0.5,0,1-0.5,1-1v-8C61,22.5,60.5,22,60,22L60,22z"/>
		<path class="logo-square" d="M70,0.8c0.1,0,0.3,0.1,0.3,0.3v5c0,0.1-0.1,0.3-0.3,0.3h-5c-0.1,0-0.3-0.1-0.3-0.3V1c0-0.1,0.1-0.3,0.3-0.3 H70 M70,0h-5c-0.6,0-1,0.4-1,1v5c0,0.6,0.4,1,1,1h5c0.6,0,1-0.4,1-1V1C71,0.4,70.6,0,70,0L70,0z"/>
		<path class="logo-square" d="M70,9.8c0.1,0,0.3,0.1,0.3,0.3v4c0,0.1-0.1,0.3-0.3,0.3h-4c-0.1,0-0.3-0.1-0.3-0.3v-4c0-0.1,0.1-0.3,0.3-0.3 H70 M70,9h-4c-0.6,0-1,0.4-1,1v4c0,0.6,0.4,1,1,1h4c0.6,0,1-0.4,1-1v-4C71,9.4,70.6,9,70,9L70,9z"/>
		<path class="logo-square" d="M71,17.8c0.1,0,0.3,0.1,0.3,0.3v4c0,0.1-0.1,0.3-0.3,0.3h-4c-0.1,0-0.3-0.1-0.3-0.3v-4c0-0.1,0.1-0.3,0.3-0.3 H71 M71,17h-4c-0.6,0-1,0.5-1,1v4c0,0.5,0.4,1,1,1h4c0.6,0,1-0.5,1-1v-4C72,17.5,71.6,17,71,17L71,17z"/>
		<path class="logo-square" d="M69,25.8c0.1,0,0.3,0.1,0.3,0.3v5c0,0.1-0.1,0.3-0.3,0.3h-5c-0.1,0-0.3-0.1-0.3-0.3v-5c0-0.1,0.1-0.3,0.3-0.3 H69 M69,25h-5c-0.5,0-1,0.5-1,1v5c0,0.5,0.5,1,1,1h5c0.6,0,1-0.5,1-1v-5C70,25.5,69.6,25,69,25L69,25z"/>
		<path class="logo-square" d="M76,0.5c0.3,0,0.5,0.2,0.5,0.5v2c0,0.3-0.2,0.5-0.5,0.5h-2c-0.3,0-0.5-0.2-0.5-0.5V1c0-0.3,0.2-0.5,0.5-0.5 H76 M76,0h-2c-0.6,0-1,0.4-1,1v2c0,0.5,0.4,1,1,1h2c0.6,0,1-0.5,1-1V1C77,0.4,76.6,0,76,0L76,0z"/>
		<path class="logo-square" d="M77,6.5c0.3,0,0.5,0.2,0.5,0.5v3c0,0.3-0.2,0.5-0.5,0.5h-3c-0.3,0-0.5-0.2-0.5-0.5V7c0-0.3,0.2-0.5,0.5-0.5 H77 M77,6h-3c-0.6,0-1,0.4-1,1v3c0,0.6,0.4,1,1,1h3c0.6,0,1-0.4,1-1V7C78,6.4,77.6,6,77,6L77,6z"/>
		<path class="logo-square" d="M78,13.5c0.3,0,0.5,0.2,0.5,0.5v3c0,0.3-0.2,0.5-0.5,0.5h-3c-0.3,0-0.5-0.2-0.5-0.5v-3c0-0.3,0.2-0.5,0.5-0.5 H78 M78,13h-3c-0.6,0-1,0.4-1,1v3c0,0.5,0.4,1,1,1h3c0.6,0,1-0.5,1-1v-3C79,13.4,78.6,13,78,13L78,13z"/>
		<path class="logo-square" d="M77,20.5c0.3,0,0.5,0.2,0.5,0.5v2c0,0.3-0.2,0.5-0.5,0.5h-2c-0.3,0-0.5-0.2-0.5-0.5v-2c0-0.3,0.2-0.5,0.5-0.5 H77 M77,20h-2c-0.6,0-1,0.5-1,1v2c0,0.5,0.4,1,1,1h2c0.6,0,1-0.5,1-1v-2C78,20.5,77.6,20,77,20L77,20z"/>
		<path class="logo-square" d="M77,26.5c0.3,0,0.5,0.2,0.5,0.5v4c0,0.3-0.2,0.5-0.5,0.5h-4c-0.3,0-0.5-0.2-0.5-0.5v-4c0-0.3,0.2-0.5,0.5-0.5 H77 M77,26h-4c-0.6,0-1,0.5-1,1v4c0,0.5,0.4,1,1,1h4c0.6,0,1-0.5,1-1v-4C78,26.5,77.6,26,77,26L77,26z"/>
		<path class="logo-square" d="M82,0.5c0.3,0,0.5,0.2,0.5,0.5v2c0,0.3-0.2,0.5-0.5,0.5h-2c-0.3,0-0.5-0.2-0.5-0.5V1c0-0.3,0.2-0.5,0.5-0.5 H82 M82,0h-2c-0.6,0-1,0.4-1,1v2c0,0.5,0.4,1,1,1h2c0.6,0,1-0.5,1-1V1C83,0.4,82.6,0,82,0L82,0z"/>
		<path class="logo-square" d="M83,6.5c0.3,0,0.5,0.2,0.5,0.5v2c0,0.3-0.2,0.5-0.5,0.5h-2c-0.3,0-0.5-0.2-0.5-0.5V7c0-0.3,0.2-0.5,0.5-0.5 H83 M83,6h-2c-0.6,0-1,0.4-1,1v2c0,0.6,0.4,1,1,1h2c0.6,0,1-0.4,1-1V7C84,6.4,83.6,6,83,6L83,6z"/>
		<path class="logo-square" d="M83,12.5c0.3,0,0.5,0.2,0.5,0.5v1c0,0.3-0.2,0.5-0.5,0.5h-1c-0.3,0-0.5-0.2-0.5-0.5v-1c0-0.3,0.2-0.5,0.5-0.5 H83 M83,12h-1c-0.6,0-1,0.4-1,1v1c0,0.6,0.4,1,1,1h1c0.6,0,1-0.4,1-1v-1C84,12.4,83.6,12,83,12L83,12z"/>
		<path class="logo-square" d="M84,17.5c0.3,0,0.5,0.2,0.5,0.5v2c0,0.3-0.2,0.5-0.5,0.5h-2c-0.3,0-0.5-0.2-0.5-0.5v-2c0-0.3,0.2-0.5,0.5-0.5 H84 M84,17h-2c-0.6,0-1,0.5-1,1v2c0,0.5,0.4,1,1,1h2c0.6,0,1-0.5,1-1v-2C85,17.5,84.6,17,84,17L84,17z"/>
		<path class="logo-square" d="M83,23.5c0.3,0,0.5,0.2,0.5,0.5v1c0,0.3-0.2,0.5-0.5,0.5h-1c-0.3,0-0.5-0.2-0.5-0.5v-1c0-0.3,0.2-0.5,0.5-0.5 H83 M83,23h-1c-0.6,0-1,0.5-1,1v1c0,0.5,0.4,1,1,1h1c0.6,0,1-0.5,1-1v-1C84,23.5,83.6,23,83,23L83,23z"/>
		<path class="logo-square" d="M83,28.5c0.3,0,0.5,0.2,0.5,0.5v2c0,0.3-0.2,0.5-0.5,0.5h-2c-0.3,0-0.5-0.2-0.5-0.5v-2c0-0.3,0.2-0.5,0.5-0.5 H83 M83,28h-2c-0.6,0-1,0.5-1,1v2c0,0.5,0.4,1,1,1h2c0.6,0,1-0.5,1-1v-2C84,28.5,83.6,28,83,28L83,28z"/>
		<path class="logo-square" d="M87,0.3c0.4,0,0.8,0.3,0.8,0.8v1c0,0.4-0.3,0.8-0.8,0.8h-1c-0.4,0-0.8-0.3-0.8-0.8V1c0-0.4,0.3-0.8,0.8-0.8 H87 M87,0h-1c-0.6,0-1,0.4-1,1v1c0,0.5,0.4,1,1,1h1c0.6,0,1-0.5,1-1V1C88,0.4,87.6,0,87,0L87,0z"/>
		<path class="logo-square" d="M89,5.3c0.4,0,0.8,0.3,0.8,0.8v2c0,0.4-0.3,0.8-0.8,0.8h-2c-0.4,0-0.8-0.3-0.8-0.8V6c0-0.4,0.3-0.8,0.8-0.8 H89 M89,5h-2c-0.6,0-1,0.4-1,1v2c0,0.6,0.4,1,1,1h2c0.6,0,1-0.4,1-1V6C90,5.4,89.6,5,89,5L89,5z"/>
		<path class="logo-square" d="M88,11.3c0.4,0,0.8,0.3,0.8,0.8v1c0,0.4-0.3,0.8-0.8,0.8h-1c-0.4,0-0.8-0.3-0.8-0.8v-1c0-0.4,0.3-0.8,0.8-0.8 H88 M88,11h-1c-0.6,0-1,0.4-1,1v1c0,0.6,0.4,1,1,1h1c0.6,0,1-0.4,1-1v-1C89,11.4,88.6,11,88,11L88,11z"/>
		<path class="logo-square" d="M88.5,16.3c0.1,0,0.3,0.1,0.3,0.3v1c0,0.1-0.1,0.3-0.3,0.3h-1c-0.1,0-0.3-0.1-0.3-0.3v-1 c0-0.1,0.1-0.3,0.3-0.3H88.5 M88.5,16h-1c-0.3,0-0.5,0.2-0.5,0.5v1c0,0.3,0.2,0.5,0.5,0.5h1c0.3,0,0.5-0.2,0.5-0.5v-1 C89,16.2,88.8,16,88.5,16L88.5,16z"/>
		<path class="logo-square" d="M89,20.3c0.4,0,0.8,0.3,0.8,0.8v1c0,0.4-0.3,0.8-0.8,0.8h-1c-0.4,0-0.8-0.3-0.8-0.8v-1c0-0.4,0.3-0.8,0.8-0.8 H89 M89,20h-1c-0.6,0-1,0.5-1,1v1c0,0.5,0.4,1,1,1h1c0.6,0,1-0.5,1-1v-1C90,20.5,89.6,20,89,20L89,20z"/>
		<path class="logo-square" d="M88,25.3c0.4,0,0.8,0.3,0.8,0.8v1c0,0.4-0.3,0.8-0.8,0.8h-1c-0.4,0-0.8-0.3-0.8-0.8v-1c0-0.4,0.3-0.8,0.8-0.8 H88 M88,25h-1c-0.6,0-1,0.5-1,1v1c0,0.5,0.4,1,1,1h1c0.6,0,1-0.5,1-1v-1C89,25.5,88.6,25,88,25L88,25z"/>
		<path class="logo-square" d="M88.8,30.3v1.5h-1.5v-1.5H88.8 M89,30h-2v2h2V30L89,30z"/>
		<path class="logo-square" d="M91.8,30.1c0.1,0,0.2,0.1,0.2,0.1v0.5c0,0.1-0.1,0.1-0.2,0.1h-0.5c-0.1,0-0.2-0.1-0.2-0.1v-0.5 c0-0.1,0.1-0.1,0.2-0.1H91.8 M91.8,30h-0.5c-0.1,0-0.3,0.1-0.3,0.3v0.5c0,0.1,0.1,0.3,0.3,0.3h0.5c0.1,0,0.3-0.1,0.3-0.3v-0.5 C92,30.1,91.9,30,91.8,30L91.8,30z"/>
		<path class="logo-square" d="M92.5,26.3c0.1,0,0.3,0.1,0.3,0.3v1c0,0.1-0.1,0.3-0.3,0.3h-1c-0.1,0-0.3-0.1-0.3-0.3v-1 c0-0.1,0.1-0.3,0.3-0.3H92.5 M92.5,26h-1c-0.3,0-0.5,0.2-0.5,0.5v1c0,0.3,0.2,0.5,0.5,0.5h1c0.3,0,0.5-0.2,0.5-0.5v-1 C93,26.2,92.8,26,92.5,26L92.5,26z"/>
		<path class="logo-square" d="M92.8,23.1c0.1,0,0.2,0.1,0.2,0.1v0.5c0,0.1-0.1,0.1-0.2,0.1h-0.5c-0.1,0-0.2-0.1-0.2-0.1v-0.5 c0-0.1,0.1-0.1,0.2-0.1H92.8 M92.8,23h-0.5c-0.1,0-0.3,0.1-0.3,0.3v0.5c0,0.1,0.1,0.3,0.3,0.3h0.5c0.1,0,0.3-0.1,0.3-0.3v-0.5 C93,23.1,92.9,23,92.8,23L92.8,23z"/>
		<path class="logo-square" d="M93.5,19.3c0.1,0,0.3,0.1,0.3,0.3v1c0,0.1-0.1,0.3-0.3,0.3h-1c-0.1,0-0.3-0.1-0.3-0.3v-1 c0-0.1,0.1-0.3,0.3-0.3H93.5 M93.5,19h-1c-0.3,0-0.5,0.2-0.5,0.5v1c0,0.3,0.2,0.5,0.5,0.5h1c0.3,0,0.5-0.2,0.5-0.5v-1 C94,19.2,93.8,19,93.5,19L93.5,19z"/>
		<path class="logo-square" d="M92.5,15.3c0.1,0,0.3,0.1,0.3,0.3v1c0,0.1-0.1,0.3-0.3,0.3h-1c-0.1,0-0.3-0.1-0.3-0.3v-1 c0-0.1,0.1-0.3,0.3-0.3H92.5 M92.5,15h-1c-0.3,0-0.5,0.2-0.5,0.5v1c0,0.3,0.2,0.5,0.5,0.5h1c0.3,0,0.5-0.2,0.5-0.5v-1 C93,15.2,92.8,15,92.5,15L92.5,15z"/>
		<path class="logo-square" d="M92.5,11.3c0.1,0,0.3,0.1,0.3,0.3v1c0,0.1-0.1,0.3-0.3,0.3h-1c-0.1,0-0.3-0.1-0.3-0.3v-1 c0-0.1,0.1-0.3,0.3-0.3H92.5 M92.5,11h-1c-0.3,0-0.5,0.2-0.5,0.5v1c0,0.3,0.2,0.5,0.5,0.5h1c0.3,0,0.5-0.2,0.5-0.5v-1 C93,11.2,92.8,11,92.5,11L92.5,11z"/>
		<path class="logo-square" d="M93.5,7.3c0.1,0,0.3,0.1,0.3,0.3v1c0,0.1-0.1,0.3-0.3,0.3h-1c-0.1,0-0.3-0.1-0.3-0.3v-1 c0-0.1,0.1-0.3,0.3-0.3H93.5 M93.5,7h-1C92.2,7,92,7.2,92,7.5v1C92,8.8,92.2,9,92.5,9h1C93.8,9,94,8.8,94,8.5v-1 C94,7.2,93.8,7,93.5,7L93.5,7z"/>
		<path class="logo-square" d="M93.5,3.3c0.1,0,0.3,0.1,0.3,0.3v1c0,0.1-0.1,0.3-0.3,0.3h-1c-0.1,0-0.3-0.1-0.3-0.3v-1 c0-0.1,0.1-0.3,0.3-0.3H93.5 M93.5,3h-1C92.2,3,92,3.2,92,3.5v1C92,4.8,92.2,5,92.5,5h1C93.8,5,94,4.8,94,4.5v-1 C94,3.2,93.8,3,93.5,3L93.5,3z"/>
		<path class="logo-square" d="M91.8,1.1c0.1,0,0.2,0.1,0.2,0.1v0.5c0,0.1-0.1,0.1-0.2,0.1h-0.5c-0.1,0-0.2-0.1-0.2-0.1V1.3 c0-0.1,0.1-0.1,0.2-0.1H91.8 M91.8,1h-0.5C91.1,1,91,1.1,91,1.3v0.5C91,1.9,91.1,2,91.3,2h0.5C91.9,2,92,1.9,92,1.8V1.3 C92,1.1,91.9,1,91.8,1L91.8,1z"/>
	</g>
	<path class="logo-square" d="M30,0H2C0.9,0,0,0.9,0,2v28c0,1.1,0.9,2,2,2h28c1.1,0,2-0.9,2-2V2C32,0.9,31.1,0,30,0z M30,28 c0,1.1-0.9,2-2,2H4c-1.1,0-2-0.9-2-2V4c0-1.1,0.9-2,2-2h24c1.1,0,2,0.9,2,2V28z"/>
	<polyline class="logo-line" points="4,24 9,19 13,23 21,15 29,24 "/>
	<circle class="logo-line" cx="14" cy="11" r="2"/>
</svg>
